<?xml version="1.0" encoding="utf-8"?>
<!-- Generator: Adobe Illustrator 21.1.0, SVG Export Plug-In . SVG Version: 6.00 Build 0)  -->
<svg version="1.1" id="圖層_1" xmlns="http://www.w3.org/2000/svg" xmlns:xlink="http://www.w3.org/1999/xlink" x="0px" y="0px"
	 viewBox="0 0 50 50" style="enable-background:new 0 0 50 50;" xml:space="preserve">
<path d="M42.7,11.5H39C38.2,8.3,35.3,0.2,25.2,0.2c-10.1,0-12.7,8.1-13.4,11.3H7.7L3.4,49.8h43.7L42.7,11.5z M25.2,2.5
	c4.6,0,7.3,2,9,4.3c-2.1-1.5-5.1-2.6-9-2.6c-3.9,0-6.7,1.1-8.8,2.6C18,4.5,20.7,2.5,25.2,2.5z M25.2,6.4c5.9,0,9.1,3,10.5,5.1H15
	C16.3,9.5,19.3,6.4,25.2,6.4z M9.9,14h28.1c0,0,0,0,0,0c0,0,0,0,0.1,0h2.5l3.8,33.3H6.2L9.9,14z M15.6,15.4h2c0,1.5-1,2.4-2.5,2.4
	c-1.8,0-2.6-1.2-2.6-2.4h2c0,0.2,0,0.4,0.6,0.4C15.6,15.8,15.6,15.7,15.6,15.4z M36.1,15.4h2c0,1.5-1,2.4-2.5,2.4
	c-1.8,0-2.6-1.2-2.6-2.4h2c0,0.2,0,0.4,0.6,0.4C36.1,15.8,36.1,15.7,36.1,15.4z"/>
</svg>
