<svg xmlns="http://www.w3.org/2000/svg" viewBox="0 0 48.51 42.8"><title>icon-nav-static</title><g id="Layer_2" data-name="Layer 2"><g id="圖層_1" data-name="圖層 1"><path d="M46.6,5.5H1.9A1.9,1.9,0,0,1,0,3.6V1.9A1.9,1.9,0,0,1,1.9,0H46.6a1.9,1.9,0,0,1,1.9,1.9V3.6A1.78,1.78,0,0,1,46.6,5.5Z"/><path d="M46.6,24.2H1.9A1.9,1.9,0,0,1,0,22.3V20.6a1.9,1.9,0,0,1,1.9-1.9H46.6a1.9,1.9,0,0,1,1.9,1.9v1.7A1.84,1.84,0,0,1,46.6,24.2Z"/><path d="M46.6,42.8H1.9A1.9,1.9,0,0,1,0,40.9V39.2a1.9,1.9,0,0,1,1.9-1.9H46.6a1.9,1.9,0,0,1,1.9,1.9v1.7A1.84,1.84,0,0,1,46.6,42.8Z"/></g></g></svg>