<svg xmlns="http://www.w3.org/2000/svg" viewBox="0 0 80.07 151.14"><defs><style>.cls-1{fill:#fff;}</style></defs><title>fb-icon</title><g id="Layer_2" data-name="Layer 2"><g id="Layer_3" data-name="Layer 3"><path class="cls-1" d="M23.47,151.14H52V83.54h3.22c6,0,12,0,18,0,1.54,0,2.3-.33,2.46-2.09.35-3.76,1-7.49,1.51-11.24.59-4.62,1.12-9.26,1.73-14.33H52.22c0-7.34-.27-14.27.09-21.17.26-5,3.32-7.91,8.39-8.34,5.32-.45,10.69-.4,16-.55,1.06,0,2.11,0,3.31,0,0-8.08,0-15.66,0-23.23,0-1.68-.88-2-2.25-2.05C70.34.36,62.86-.09,55.38,0c-16.22.23-29.29,11.79-31,27.93-.89,8.14-.51,16.41-.69,24.62,0,1.07,0,2.14,0,3.49H0V83.61H23.47Z"/></g></g></svg>