<?xml version="1.0" encoding="utf-8"?>
<!-- Generator: Adobe Illustrator 21.0.2, SVG Export Plug-In . SVG Version: 6.00 Build 0)  -->
<svg version="1.1" id="Layer_1" xmlns="http://www.w3.org/2000/svg" xmlns:xlink="http://www.w3.org/1999/xlink" x="0px" y="0px"
	 viewBox="0 0 182.8 182.8" style="enable-background:new 0 0 182.8 182.8;" xml:space="preserve">
<style type="text/css">
	.st0{fill:#212121;}
</style>
<title>insta-icon</title>
<g id="Layer_2">
	<g id="Layer_3">
		<path class="st0" d="M129.5,182.8H53.3C23.9,182.7,0,158.9,0,129.5V53.3C0,23.9,23.9,0,53.3,0h76.3c29.4,0,53.2,23.9,53.3,53.3
			v76.3C182.7,158.9,158.9,182.7,129.5,182.8z M53.3,17C33.2,17,17,33.2,17,53.3v76.3c0,20,16.2,36.2,36.3,36.3h76.3
			c20,0,36.2-16.2,36.3-36.3V53.3c0-20-16.2-36.2-36.3-36.3H53.3z"/>
		<path class="st0" d="M91.4,138.9c-26.2,0-47.5-21.3-47.5-47.5s21.3-47.5,47.5-47.5s47.5,21.3,47.5,47.5
			C138.9,117.6,117.6,138.9,91.4,138.9z M91.4,60.9c-16.8,0-30.5,13.7-30.5,30.5s13.7,30.5,30.5,30.5s30.5-13.7,30.5-30.5
			C121.9,74.5,108.2,60.9,91.4,60.9z"/>
		<circle class="st0" cx="140.6" cy="42.6" r="11.3"/>
	</g>
</g>
</svg>
