<?xml version="1.0" encoding="utf-8"?>
<!-- Generator: Adobe Illustrator 21.1.0, SVG Export Plug-In . SVG Version: 6.00 Build 0)  -->
<svg version="1.1" id="圖層_1" xmlns="http://www.w3.org/2000/svg" xmlns:xlink="http://www.w3.org/1999/xlink" x="0px" y="0px"
	 viewBox="0 0 50 50" style="enable-background:new 0 0 50 50;" xml:space="preserve">
<path d="M11.1,2.7c2.4-1.4,5-2.1,7.8-2.4c4.4-0.4,8.4,0.6,12.1,2.8c2.9,1.7,5.3,4.1,7,7c1.5,2.4,2.4,5,2.8,7.8
	c0.8,5.2-0.3,10.1-3.1,14.5c-0.2,0.3-0.3,0.5-0.5,0.8c-0.3,0.4-0.2,0.6,0.1,1c0.2,0.2,0.4,0.4,0.6,0.7c3.5,3.6,7,7.2,10.5,10.8
	c0.2,0.2,0.5,0.5,0.7,0.8c0.6,0.9,0.5,2.1-0.3,2.8c-0.7,0.6-1.4,0.7-2.2,0.3c-0.4-0.2-0.7-0.5-1-0.8c-0.9-0.9-1.7-1.8-2.6-2.7
	c-2.7-2.7-5.4-5.5-8.1-8.2c-1-1-1-1-2-0.1c-3.1,2.4-6.6,3.8-10.5,4.1c-5.3,0.5-10-0.9-14.2-4.1c-4.4-3.4-7.6-10.5-7.6-16.1
	C0.6,13.4,4.1,6.8,11.1,2.7z M4.6,21.2c0,0.7,0,1.4,0.1,2.2c0.6,4.1,2.4,7.7,5.6,10.4c3.8,3.2,8.1,4.5,13,3.7
	C29,36.5,33,33.2,35.4,28c1.3-2.9,1.8-6,1.3-9.2c-0.7-4.3-2.6-7.8-5.9-10.5s-7.1-3.8-11.5-3.6c-4,0.4-7.3,2-10,4.8
	C6.1,12.7,4.6,16.5,4.6,21.2z"/>
</svg>
