<?xml version="1.0" encoding="utf-8"?>
<!-- Generator: Adobe Illustrator 21.1.0, SVG Export Plug-In . SVG Version: 6.00 Build 0)  -->
<svg version="1.1" id="圖層_1" xmlns="http://www.w3.org/2000/svg" xmlns:xlink="http://www.w3.org/1999/xlink" x="0px" y="0px"
	 viewBox="0 0 50 50" style="enable-background:new 0 0 50 50;" xml:space="preserve">
<path d="M47.3,9.1H2.6c-1.1,0-1.9-0.9-1.9-1.9V5.5c0-1.1,0.9-1.9,1.9-1.9h44.7c1.1,0,1.9,0.9,1.9,1.9v1.7
	C49.3,8.3,48.4,9.1,47.3,9.1z"/>
<path d="M47.3,27.8H2.6c-1.1,0-1.9-0.9-1.9-1.9v-1.7c0-1.1,0.9-1.9,1.9-1.9h44.7c1.1,0,1.9,0.9,1.9,1.9v1.7
	C49.3,26.9,48.4,27.8,47.3,27.8z"/>
<path d="M47.3,46.4H2.6c-1.1,0-1.9-0.9-1.9-1.9v-1.7c0-1.1,0.9-1.9,1.9-1.9h44.7c1.1,0,1.9,0.9,1.9,1.9v1.7
	C49.3,45.5,48.4,46.4,47.3,46.4z"/>
</svg>
