<svg xmlns="http://www.w3.org/2000/svg" viewBox="0 0 206.86 146.72"><defs><style>.cls-1{fill:#fff;}</style></defs><title>youtube-icon</title><g id="Layer_2" data-name="Layer 2"><g id="Layer_3" data-name="Layer 3"><path class="cls-1" d="M205,30.86A29.14,29.14,0,0,0,176,1.81S121.57,0,103.43,0,30.86,1.81,30.86,1.81A29.14,29.14,0,0,0,1.81,30.86S0,62.73,0,73.36s1.81,42.5,1.81,42.5a29.14,29.14,0,0,0,29.05,29.05s54.85,1.81,73.13,1.81c18,0,72-1.81,72-1.81A29.14,29.14,0,0,0,205,115.86s1.81-31.87,1.81-42.5S205,30.86,205,30.86ZM80.91,102.3V44.42l55.61,28Z"/></g></g></svg>