<svg xmlns="http://www.w3.org/2000/svg" viewBox="0 0 120 120"><defs><style>.cls-1{fill:#cdcdcd;}</style></defs><title>icon-towishlist</title><g id="Layer_2" data-name="Layer 2"><g id="Layer_1-2" data-name="Layer 1"><path class="cls-1" d="M60,120l-2-1.62c-.51-.41-1.28-1-2.28-1.76C22.22,91.13,3.57,65.1.28,39.26c-.86-6.77-.14-20.67,8-29.87C13.84,3.16,21.77,0,31.86,0,44.22,0,54.92,9.2,60,18.73,65.08,9.2,75.78,0,88.14,0c10.09,0,18,3.16,23.55,9.39,8.17,9.2,8.89,23.1,8,29.87-3.29,25.84-21.94,51.87-55.44,77.36-1,.76-1.77,1.35-2.28,1.76ZM31.86,6.27c-8.2,0-14.53,2.45-18.82,7.27-6.69,7.54-7.18,19.61-6.5,24.94,3.07,24.12,20.91,48.73,53,73.17L60,112l.43-.33c32.11-24.44,50-49.05,53-73.17.68-5.33.19-17.4-6.5-24.94-4.28-4.82-10.62-7.27-18.82-7.27-14.18,0-25,15.62-25,23.43H56.84C56.84,21.88,46,6.27,31.86,6.27Z"/></g></g></svg>