<?xml version="1.0" encoding="utf-8"?>
<!-- Generator: Adobe Illustrator 21.0.2, SVG Export Plug-In . SVG Version: 6.00 Build 0)  -->
<svg version="1.1" id="Layer_1" xmlns="http://www.w3.org/2000/svg" xmlns:xlink="http://www.w3.org/1999/xlink" x="0px" y="0px"
	 viewBox="0 0 80.1 151.1" style="enable-background:new 0 0 80.1 151.1;" xml:space="preserve">
<style type="text/css">
	.st0{fill:#212121;}
</style>
<title>fb-icon</title>
<g id="Layer_2">
	<g id="Layer_3">
		<path class="st0" d="M23.5,151.1H52V83.5h3.2c6,0,12,0,18,0c1.5,0,2.3-0.3,2.5-2.1c0.3-3.8,1-7.5,1.5-11.2
			c0.6-4.6,1.1-9.3,1.7-14.3H52.2c0-7.3-0.3-14.3,0.1-21.2c0.3-5,3.3-7.9,8.4-8.3c5.3-0.5,10.7-0.4,16-0.5c1.1,0,2.1,0,3.3,0
			c0-8.1,0-15.7,0-23.2c0-1.7-0.9-2-2.3-2C70.3,0.4,62.9-0.1,55.4,0c-16.2,0.2-29.3,11.8-31,27.9c-0.9,8.1-0.5,16.4-0.7,24.6
			c0,1.1,0,2.1,0,3.5H0v27.6h23.5V151.1z"/>
	</g>
</g>
</svg>
