<svg xmlns="http://www.w3.org/2000/svg" viewBox="0 0 182.75 182.75"><defs><style>.cls-1{fill:#fff;}</style></defs><title>insta-icon</title><g id="Layer_2" data-name="Layer 2"><g id="Layer_3" data-name="Layer 3"><path class="cls-1" d="M129.5,182.75H53.25A53.31,53.31,0,0,1,0,129.5V53.25A53.31,53.31,0,0,1,53.25,0H129.5a53.31,53.31,0,0,1,53.25,53.25V129.5A53.31,53.31,0,0,1,129.5,182.75ZM53.25,17A36.29,36.29,0,0,0,17,53.25V129.5a36.29,36.29,0,0,0,36.25,36.25H129.5a36.29,36.29,0,0,0,36.25-36.25V53.25A36.29,36.29,0,0,0,129.5,17Z"/><path class="cls-1" d="M91.38,138.88a47.5,47.5,0,1,1,47.5-47.5A47.55,47.55,0,0,1,91.38,138.88Zm0-78a30.5,30.5,0,1,0,30.5,30.5A30.54,30.54,0,0,0,91.38,60.88Z"/><circle class="cls-1" cx="140.63" cy="42.63" r="11.25"/></g></g></svg>