<svg xmlns="http://www.w3.org/2000/svg" viewBox="0 0 193.89 184.6"><defs><style>.cls-1{fill:#fff;}</style></defs><title>line-icon</title><g id="Layer_2" data-name="Layer 2"><g id="Layer_3" data-name="Layer 3"><path class="cls-1" d="M159.51,18.66C140.65,5.71,119.54.13,96.84,0A98.51,98.51,0,0,0,79.9,1.2C55.43,5,34.07,14.78,17.43,33.64c-23.6,26.75-23.18,64.8.9,91.14,13.62,14.9,30.52,24.09,49.93,28.91,4.81,1.19,9.77,1.79,14.58,3,6.58,1.67,8.37,4.48,7.54,11.27-.42,3.46-1,6.89-1.59,10.33-.92,5.76,1.16,7.49,6.71,5.5a54.09,54.09,0,0,0,8.67-4.27,374.21,374.21,0,0,0,43.51-29.41c12.47-9.74,24.26-20.19,33.46-33.23,11.78-16.69,15.71-35,10.5-54.86C186.73,43.38,175.17,29.41,159.51,18.66ZM58.38,104.75c-6,.09-12,.08-18,0-4.19,0-6.25-2.08-6.3-6.3-.08-6.18,0-12.37,0-18.55h0c0-6.36-.09-12.72,0-19.07a5.24,5.24,0,0,1,5.19-5.46c3-.09,5.17,1.84,5.63,5A22.32,22.32,0,0,1,45,63.56q0,12.67,0,25.34c0,.78.05,1.57,0,2.35-.12,2,.84,2.8,2.83,2.76,3.48-.07,7-.05,10.45,0s5.88,2.29,5.9,5.32S61.83,104.69,58.38,104.75Zm20.77-6.57c0,4-2,6.45-5.21,6.55s-5.69-2.31-5.73-6.39c-.1-12.1,0-24.21,0-36.31a10.75,10.75,0,0,1,.2-1.82c.55-3.15,2.83-5,5.79-4.82a5.17,5.17,0,0,1,4.91,5.43c.1,6.44,0,12.89,0,19.33h0C79.16,86.16,79.19,92.17,79.15,98.18Zm46.53.88c-.14,2.59-1.25,4.53-3.81,5.37s-4.65-.13-6.19-2.19c-4-5.3-7.87-10.65-11.8-16l-6.35-8.63c-1,1.06-.68,2.06-.68,3,0,5.58,0,11.15,0,16.73a9.38,9.38,0,0,1-.54,3.86A5.34,5.34,0,0,1,86,100.43a13.51,13.51,0,0,1-.22-2.86q0-17.52,0-35a17,17,0,0,1,.08-2.09c.29-2.35,1.37-4.16,3.75-4.85a5.22,5.22,0,0,1,5.87,1.82c2.05,2.59,4,5.29,5.94,8q5.73,7.79,11.45,15.59a2.37,2.37,0,0,0,1.78,1.33c0-6.13,0-12,0-17.94a25.67,25.67,0,0,1,.34-4.68,5.33,5.33,0,0,1,10.49.17,14,14,0,0,1,.17,2.6q0,17.65,0,35.29C125.7,98.18,125.7,98.62,125.67,99.06Zm30.68,5.68q-9.27.16-18.55,0c-3.84-.06-5.89-2.2-5.93-6.13-.07-6.18,0-12.37,0-18.56h0c0-6,0-12,0-18,0-4.8,1.89-6.65,6.66-6.68q8.49-.06,17,0c4.13,0,6.33,1.9,6.37,5.29s-2.29,5.41-6.5,5.45q-5,.05-9.93,0c-1.73,0-2.48.73-2.61,2.48-.43,5.85-.25,6.08,5.53,6.09,2.7,0,5.4-.06,8.1,0,3.29.13,5.35,2.17,5.42,5.17.07,3.15-2,5.37-5.36,5.49-3.57.13-7.14.12-10.71,0-2.11,0-3,.78-3,2.91.08,6.38-.8,5.62,5.45,5.67,2.7,0,5.4-.05,8.1,0,3.38.12,5.58,2.3,5.54,5.34A5.27,5.27,0,0,1,156.35,104.74Z"/></g></g></svg>