<?xml version="1.0" encoding="utf-8"?>
<!-- Generator: Adobe Illustrator 21.0.2, SVG Export Plug-In . SVG Version: 6.00 Build 0)  -->
<svg version="1.1" id="Layer_1" xmlns="http://www.w3.org/2000/svg" xmlns:xlink="http://www.w3.org/1999/xlink" x="0px" y="0px"
	 viewBox="0 0 193.9 184.6" style="enable-background:new 0 0 193.9 184.6;" xml:space="preserve">
<style type="text/css">
	.st0{fill:#212121;}
</style>
<title>line-icon</title>
<g id="Layer_2">
	<g id="Layer_3">
		<path class="st0" d="M159.5,18.7C140.6,5.7,119.5,0.1,96.8,0c-5.7-0.1-11.3,0.3-16.9,1.2C55.4,5,34.1,14.8,17.4,33.6
			c-23.6,26.8-23.2,64.8,0.9,91.1c13.6,14.9,30.5,24.1,49.9,28.9c4.8,1.2,9.8,1.8,14.6,3c6.6,1.7,8.4,4.5,7.5,11.3
			c-0.4,3.5-1,6.9-1.6,10.3c-0.9,5.8,1.2,7.5,6.7,5.5c3-1.2,5.9-2.6,8.7-4.3c15.2-8.8,29.7-18.6,43.5-29.4
			c12.5-9.7,24.3-20.2,33.5-33.2c11.8-16.7,15.7-35,10.5-54.9C186.7,43.4,175.2,29.4,159.5,18.7z M58.4,104.8c-6,0.1-12,0.1-18,0
			c-4.2,0-6.3-2.1-6.3-6.3c-0.1-6.2,0-12.4,0-18.6l0,0c0-6.4-0.1-12.7,0-19.1c-0.1-2.9,2.1-5.3,5-5.5c0.1,0,0.1,0,0.2,0
			c3-0.1,5.2,1.8,5.6,5c0.1,1.1,0.1,2.1,0.1,3.2c0,8.4,0,16.9,0,25.3c0,0.8,0,1.6,0,2.3c-0.1,2,0.8,2.8,2.8,2.8
			c3.5-0.1,7-0.1,10.5,0s5.9,2.3,5.9,5.3S61.8,104.7,58.4,104.8z M79.2,98.2c0,4-2,6.4-5.2,6.6s-5.7-2.3-5.7-6.4
			c-0.1-12.1,0-24.2,0-36.3c0-0.6,0.1-1.2,0.2-1.8c0.6-3.2,2.8-5,5.8-4.8c2.9,0.1,5.1,2.6,4.9,5.4c0,0,0,0,0,0
			c0.1,6.4,0,12.9,0,19.3l0,0C79.2,86.2,79.2,92.2,79.2,98.2z M125.7,99.1c-0.1,2.6-1.3,4.5-3.8,5.4s-4.7-0.1-6.2-2.2
			c-4-5.3-7.9-10.7-11.8-16l-6.3-8.6c-1,1.1-0.7,2.1-0.7,3c0,5.6,0,11.2,0,16.7c0.1,1.3-0.1,2.6-0.5,3.9c-1,2.8-4,4.3-6.8,3.3
			c-1.8-0.6-3.2-2.2-3.5-4.1c-0.2-0.9-0.2-1.9-0.2-2.9c0-11.7,0-23.3,0-35c0-0.7,0-1.4,0.1-2.1c0.3-2.3,1.4-4.2,3.8-4.8
			c2.1-0.7,4.5,0,5.9,1.8c2.1,2.6,4,5.3,5.9,8c3.8,5.2,7.6,10.4,11.4,15.6c0.3,0.7,1,1.2,1.8,1.3c0-6.1,0-12,0-17.9
			c0-1.6,0.1-3.1,0.3-4.7c0.6-2.9,3.4-4.8,6.3-4.2c2.2,0.4,3.9,2.2,4.2,4.4c0.1,0.9,0.2,1.7,0.2,2.6c0,11.8,0,23.5,0,35.3
			C125.7,98.2,125.7,98.6,125.7,99.1L125.7,99.1z M156.4,104.7c-6.2,0.1-12.4,0.1-18.6,0c-3.8-0.1-5.9-2.2-5.9-6.1
			c-0.1-6.2,0-12.4,0-18.6l0,0c0-6,0-12,0-18c0-4.8,1.9-6.7,6.7-6.7c5.7,0,11.3,0,17,0c4.1,0,6.3,1.9,6.4,5.3s-2.3,5.4-6.5,5.4
			c-3.3,0-6.6,0-9.9,0c-1.7,0-2.5,0.7-2.6,2.5c-0.4,5.8-0.3,6.1,5.5,6.1c2.7,0,5.4-0.1,8.1,0c3.3,0.1,5.4,2.2,5.4,5.2
			c0.1,3.2-2,5.4-5.4,5.5c-3.6,0.1-7.1,0.1-10.7,0c-2.1,0-3,0.8-3,2.9c0.1,6.4-0.8,5.6,5.4,5.7c2.7,0,5.4-0.1,8.1,0
			c3.4,0.1,5.6,2.3,5.5,5.3c0.1,2.9-2.1,5.4-5,5.5C156.7,104.8,156.5,104.8,156.4,104.7L156.4,104.7z"/>
	</g>
</g>
</svg>
