<?xml version="1.0" encoding="utf-8"?>
<!-- Generator: Adobe Illustrator 21.0.2, SVG Export Plug-In . SVG Version: 6.00 Build 0)  -->
<svg version="1.1" id="Layer_1" xmlns="http://www.w3.org/2000/svg" xmlns:xlink="http://www.w3.org/1999/xlink" x="0px" y="0px"
	 viewBox="0 0 174.3 140.6" style="enable-background:new 0 0 174.3 140.6;" xml:space="preserve">
<style type="text/css">
	.st0{fill:#212121;}
</style>
<title>wechat-icon</title>
<g id="Layer_2">
	<g id="Layer_3">
		<path class="st0" d="M77.6,61c11.9-11.7,26.5-16.9,43-17.2c4.4-0.1,4.6-0.3,3.3-4.5c-1.4-5-3.8-9.6-6.9-13.8
			C103.4,7.7,84.8,0.6,66,0C45.5,0.1,29.7,5,16.5,17C3,29.1-2.7,44.3,1.2,62.3c2.5,11.7,9.2,21,18.7,28.2c3.4,2.5,4.1,5.2,2.9,9
			c-0.8,2.4-1.3,4.9-2,7.3c-0.3,1.2-0.7,2.4,0.4,3.3s2.3,0.2,3.3-0.4c3.5-2,7.1-4,10.6-6.1c2.6-1.8,5.9-2.2,8.9-1.3
			c5.5,1.6,11.3,2.1,17,2.5c3.9,0.3,4.5-0.3,3.8-4.2C61.9,85.2,66.5,71.9,77.6,61z M84.3,26.8c4.8,0.2,8.5,4.3,8.3,9.1
			c-0.2,4.6-4,8.2-8.6,8.3c-4.7,0-8.5-3.9-8.5-8.6c0-0.1,0-0.2,0-0.2c0.1-4.8,4-8.6,8.8-8.5C84.2,26.8,84.3,26.8,84.3,26.8z
			 M41.7,44.1c-4.8-0.1-8.6-4.1-8.5-8.8s4.1-8.6,8.8-8.5c4.8,0.1,8.6,4,8.5,8.8C50.4,40.4,46.4,44.2,41.7,44.1z"/>
		<path class="st0" d="M159,61.3c-20.3-16.6-51.8-17.3-72.6-1.2c-10.4,8-16.8,18.3-16.7,31.3c-0.1,13.6,5.6,23.8,15.4,31.7
			c15.1,12.2,32.4,14.7,50.9,10.9c4-0.8,7.2-0.6,10.5,1.6c2.3,1.5,4.8,2.8,7.1,4.2c0.9,0.5,1.9,1.3,3,0.4s0.5-2,0.2-3
			c-0.6-2.2-1.1-4.4-1.7-6.6c-0.9-2.3,0-5,2.1-6.3c1-0.7,1.9-1.5,2.8-2.3C179.5,105,179,77.6,159,61.3z M104.5,85.3
			c-4,0.1-7.3-3.1-7.3-7.1c0-0.1,0-0.1,0-0.2c0-4,3.2-7.3,7.2-7.3c4,0,7.3,3.2,7.3,7.2c0.1,4-3.1,7.3-7,7.4
			C104.6,85.2,104.5,85.2,104.5,85.3L104.5,85.3z M139.3,85.3c-3.9-0.1-7-3.3-6.9-7.3c0-4,3.2-7.3,7.2-7.3c0,0,0,0,0,0
			c4,0.1,7.2,3.4,7.2,7.4C146.7,82.2,143.4,85.3,139.3,85.3C139.3,85.2,139.3,85.2,139.3,85.3L139.3,85.3z"/>
	</g>
</g>
</svg>
