<svg xmlns="http://www.w3.org/2000/svg" viewBox="0 0 174.33 140.56"><defs><style>.cls-1{fill:#fff;}</style></defs><title>wechat-icon</title><g id="Layer_2" data-name="Layer 2"><g id="Layer_3" data-name="Layer 3"><path class="cls-1" d="M77.61,61c11.86-11.65,26.46-16.94,43-17.24,4.38-.08,4.55-.3,3.29-4.55a42.59,42.59,0,0,0-6.91-13.75C103.42,7.68,84.8.57,66,0,45.52.07,29.67,5,16.52,17,3.05,29.14-2.66,44.3,1.16,62.33c2.49,11.73,9.2,21,18.69,28.17,3.35,2.52,4.14,5.24,2.87,9-.8,2.38-1.32,4.86-2,7.29-.3,1.17-.68,2.44.44,3.35s2.3.16,3.33-.42c3.55-2,7.12-4,10.59-6.11a10.35,10.35,0,0,1,8.9-1.29c5.54,1.64,11.31,2.07,17,2.52,3.94.31,4.48-.33,3.77-4.17C61.94,85.17,66.52,71.94,77.61,61ZM84.29,26.8a8.68,8.68,0,0,1-.37,17.35,8.54,8.54,0,0,1-8.49-8.83A8.64,8.64,0,0,1,84.29,26.8ZM41.66,44.14a8.67,8.67,0,1,1,8.84-8.53A8.8,8.8,0,0,1,41.66,44.14Z"/><path class="cls-1" d="M159,61.25C138.7,44.67,107.22,44,86.44,60.07c-10.36,8-16.8,18.3-16.68,31.31-.1,13.56,5.57,23.78,15.39,31.7,15.07,12.16,32.43,14.7,50.93,10.9,4-.81,7.23-.62,10.54,1.62,2.28,1.54,4.75,2.8,7.15,4.16.93.52,1.94,1.25,3,.43s.46-2,.21-3c-.55-2.21-1.06-4.44-1.73-6.61a5.16,5.16,0,0,1,2.11-6.29c1-.71,1.86-1.52,2.76-2.3C179.5,105,179,77.57,159,61.25Zm-54.53,24A7.2,7.2,0,0,1,97.14,78a7.27,7.27,0,0,1,14.54-.14A7.2,7.2,0,0,1,104.48,85.22Zm34.83,0A7.14,7.14,0,0,1,132.36,78a7.26,7.26,0,0,1,7.28-7.27,7.45,7.45,0,0,1,7.19,7.43A7.27,7.27,0,0,1,139.31,85.21Z"/></g></g></svg>