<?xml version="1.0" encoding="utf-8"?>
<!-- Generator: Adobe Illustrator 21.0.2, SVG Export Plug-In . SVG Version: 6.00 Build 0)  -->
<svg version="1.1" id="Layer_1" xmlns="http://www.w3.org/2000/svg" xmlns:xlink="http://www.w3.org/1999/xlink" x="0px" y="0px"
	 viewBox="0 0 206.9 146.7" style="enable-background:new 0 0 206.9 146.7;" xml:space="preserve">
<style type="text/css">
	.st0{fill:#212121;}
</style>
<title>youtube-icon</title>
<g id="Layer_2">
	<g id="Layer_3">
		<path class="st0" d="M205,30.9c0-16-13-29-29-29.1c0,0-54.4-1.8-72.6-1.8S30.9,1.8,30.9,1.8c-16,0-29,13-29.1,29.1
			c0,0-1.8,31.9-1.8,42.5s1.8,42.5,1.8,42.5c0,16,13,29,29,29.1c0,0,54.8,1.8,73.1,1.8c18,0,72-1.8,72-1.8c16-0.1,29-13,29-29.1
			c0,0,1.8-31.9,1.8-42.5S205,30.9,205,30.9z M80.9,102.3V44.4l55.6,28L80.9,102.3z"/>
	</g>
</g>
</svg>
